<svg width="33" height="40" viewBox="0 0 33 40" fill="none" xmlns="http://www.w3.org/2000/svg">
<path d="M27.1531 21.2251C27.1348 18.0595 28.5493 15.6736 31.406 13.9144C29.8083 11.5935 27.3911 10.3171 24.2049 10.0711C21.188 9.82968 17.8873 11.8535 16.6787 11.8535C15.4014 11.8535 12.4807 10.1546 10.1825 10.1546C5.43976 10.2289 0.399414 13.9887 0.399414 21.6382C0.399414 23.8988 0.806853 26.2336 1.62173 28.638C2.71129 31.8036 6.63918 39.56 10.7365 39.4346C12.879 39.3836 14.3943 37.8936 17.1822 37.8936C19.8878 37.8936 21.2887 39.4346 23.6784 39.4346C27.8123 39.3743 31.3648 32.3235 32.3994 29.1486C26.8555 26.4981 27.1531 21.3876 27.1531 21.2251ZM22.3416 7.06785C24.6626 4.27353 24.4521 1.72987 24.3834 0.815445C22.3325 0.93613 19.9611 2.23117 18.6106 3.82329C17.1227 5.53144 16.2483 7.64343 16.436 10.0246C18.6518 10.1964 20.6752 9.04059 22.3416 7.06785Z" fill="#65C77E"/>
</svg>
