<svg width="56" height="57" viewBox="0 0 56 57" fill="none" xmlns="http://www.w3.org/2000/svg">
<rect y="0.964233" width="55.7275" height="56.0001" rx="8" fill="#E1ECD4"/>
<path d="M27.9552 46.9643C19.7107 46.9643 12.9099 40.0249 12.9099 31.3173C12.9099 22.6097 19.7107 15.6702 27.9552 15.6702C36.1996 15.6702 43.0005 22.6097 43.0005 31.3173C43.0005 40.0249 36.1996 46.9643 27.9552 46.9643Z" stroke="#00518B" stroke-width="4"/>
<path d="M41.7275 43.6232C39.5832 43.6232 37.7275 41.8035 37.7275 39.4114C37.7275 37.0193 39.5832 35.1996 41.7275 35.1996C43.8718 35.1996 45.7275 37.0193 45.7275 39.4114C45.7275 41.8035 43.8718 43.6232 41.7275 43.6232Z" fill="#F0F3F7" stroke="#77B531" stroke-width="4"/>
<circle cx="28.0913" cy="14.9642" r="4" transform="rotate(90 28.0913 14.9642)" fill="#F0F3F7" stroke="#77B531" stroke-width="4"/>
<circle cx="14" cy="39.1996" r="4" transform="rotate(90 14 39.1996)" fill="#F0F3F7" stroke="#77B531" stroke-width="4"/>
</svg>
