<svg width="56" height="57" viewBox="0 0 56 57" fill="none" xmlns="http://www.w3.org/2000/svg">
<rect x="0.00012207" y="0.964233" width="56" height="56" rx="8" fill="#E7EEF6"/>
<path d="M28.1458 46.9082C19.8676 46.9082 13.1549 40.1935 13.1549 31.9082C13.1549 23.6229 19.8676 16.9082 28.1458 16.9082C36.4241 16.9082 43.1368 23.6229 43.1368 31.9082C43.1368 40.1935 36.4241 46.9082 28.1458 46.9082Z" stroke="#00518B" stroke-width="4"/>
<path d="M41.8639 43.6791C39.7196 43.6791 37.8639 41.8594 37.8639 39.4673C37.8639 37.0752 39.7196 35.2555 41.8639 35.2555C44.0082 35.2555 45.8639 37.0752 45.8639 39.4673C45.8639 41.8594 44.0082 43.6791 41.8639 43.6791Z" fill="#F0F3F7" stroke="#EB7F2C" stroke-width="4"/>
<circle cx="28.2276" cy="15.0201" r="4" transform="rotate(90 28.2276 15.0201)" fill="#F0F3F7" stroke="#EB7F2C" stroke-width="4"/>
<circle cx="14.1364" cy="39.2555" r="4" transform="rotate(90 14.1364 39.2555)" fill="#F0F3F7" stroke="#EB7F2C" stroke-width="4"/>
</svg>
