<svg width="56" height="57" viewBox="0 0 56 57" fill="none" xmlns="http://www.w3.org/2000/svg">
<rect x="0.00012207" y="0.964233" width="56" height="56" rx="12" fill="#E6EEF3"/>
<path d="M46.1751 12.6976C45.6044 12.332 44.9448 12.0912 44.2498 11.9947C43.5549 11.8982 42.8441 11.9487 42.1751 12.142C40.4105 12.5831 38.5829 12.7927 36.7501 12.7642C34.0416 12.6336 31.3859 12.0453 28.9251 11.0309C25.8852 9.78119 22.597 9.0788 19.2502 8.96423C12.0252 8.96423 9.25016 11.1865 8.75016 11.4976C8.51094 11.706 8.32127 11.955 8.19243 12.2299C8.06359 12.5047 7.99821 12.7998 8.00016 13.0976V46.742C8.00016 47.3314 8.26356 47.8966 8.7324 48.3134C9.20124 48.7301 9.83712 48.9642 10.5002 48.9642C11.1632 48.9642 11.7991 48.7301 12.2679 48.3134C12.7368 47.8966 13.0002 47.3314 13.0002 46.742V37.1865C14.9922 36.5085 17.1188 36.1985 19.2502 36.2753C21.9587 36.406 24.6144 36.9943 27.0751 38.0087C30.1151 39.2584 33.4033 39.9608 36.7501 40.0753C39.7639 40.1765 42.762 39.6435 45.5001 38.5198C46.2381 38.2116 46.8638 37.7253 47.3059 37.1163C47.7479 36.5072 47.9885 35.8 48.0001 35.0753V15.8753C47.9992 15.2553 47.8335 14.6442 47.5163 14.0919C47.1991 13.5397 46.7396 13.0619 46.1751 12.6976ZM43.0001 34.7198C41.0073 35.3953 38.8813 35.7053 36.7501 35.6309C34.0383 35.5032 31.3804 34.9069 28.9251 33.8753C25.8794 32.6437 22.5936 31.9494 19.2502 31.8309C17.1439 31.7986 15.0422 32.0154 13.0002 32.4753V14.342C14.9876 13.6472 17.1164 13.3293 19.2502 13.4087C21.962 13.5364 24.6199 14.1327 27.0751 15.1642C30.1209 16.3959 33.4067 17.0902 36.7501 17.2087C38.8577 17.2363 40.9598 17.0121 43.0001 16.542V34.7198Z" fill="#00518B"/>
<path d="M26.5358 30.2269C26.4566 30.2268 26.3779 30.2147 26.3034 30.1912C26.1597 30.1454 26.0378 30.059 25.9572 29.9457C25.8767 29.8325 25.8421 29.699 25.8591 29.5667L26.3855 25.3499H22.3591C22.2349 25.35 22.113 25.3208 22.0065 25.2652C21.9 25.2096 21.8129 25.1299 21.7545 25.0345C21.6962 24.9391 21.6688 24.8317 21.6754 24.7238C21.6819 24.6159 21.7221 24.5116 21.7917 24.4221L27.1853 17.404C27.2706 17.2941 27.3956 17.2122 27.5405 17.1713C27.6854 17.1304 27.8419 17.1327 27.9851 17.178C28.1227 17.2224 28.2403 17.3043 28.3203 17.4114C28.4003 17.5185 28.4386 17.6452 28.4294 17.7727L27.903 22.0193H31.9294C32.0536 22.0191 32.1755 22.0484 32.282 22.1039C32.3885 22.1595 32.4756 22.2393 32.534 22.3346C32.5923 22.43 32.6197 22.5374 32.6131 22.6453C32.6066 22.7532 32.5664 22.8576 32.4968 22.9471L27.1032 29.9652C27.0405 30.0459 26.956 30.112 26.8571 30.1576C26.7581 30.2032 26.6478 30.227 26.5358 30.2269Z" fill="#77B531"/>
</svg>
