<svg width="56" height="57" viewBox="0 0 56 57" fill="none" xmlns="http://www.w3.org/2000/svg">
<rect y="0.964233" width="56" height="56" rx="12" fill="#E2FAE8"/>
<path d="M46.175 12.6976C45.6043 12.332 44.9447 12.0912 44.2497 11.9947C43.5547 11.8982 42.8439 11.9487 42.175 12.142C40.4104 12.5831 38.5828 12.7927 36.75 12.7642C34.0415 12.6336 31.3858 12.0453 28.925 11.0309C25.8851 9.78119 22.5969 9.0788 19.25 8.96423C12.025 8.96423 9.25004 11.1865 8.75004 11.4976C8.51081 11.706 8.32115 11.955 8.19231 12.2299C8.06347 12.5047 7.99809 12.7998 8.00004 13.0976V46.742C8.00004 47.3314 8.26343 47.8966 8.73228 48.3134C9.20112 48.7301 9.837 48.9642 10.5 48.9642C11.1631 48.9642 11.799 48.7301 12.2678 48.3134C12.7366 47.8966 13 47.3314 13 46.742V37.1865C14.9921 36.5085 17.1187 36.1985 19.25 36.2753C21.9586 36.406 24.6142 36.9943 27.075 38.0087C30.115 39.2584 33.4032 39.9608 36.75 40.0753C39.7638 40.1765 42.7618 39.6435 45.5 38.5198C46.238 38.2116 46.8637 37.7253 47.3057 37.1163C47.7478 36.5072 47.9883 35.8 48 35.0753V15.8753C47.9991 15.2553 47.8333 14.6442 47.5162 14.0919C47.199 13.5397 46.7395 13.0619 46.175 12.6976ZM43 34.7198C41.0072 35.3953 38.8812 35.7053 36.75 35.6309C34.0381 35.5032 31.3803 34.9069 28.925 33.8753C25.8793 32.6437 22.5935 31.9494 19.25 31.8309C17.1438 31.7986 15.042 32.0154 13 32.4753V14.342C14.9875 13.6472 17.1163 13.3293 19.25 13.4087C21.9619 13.5364 24.6198 14.1327 27.075 15.1642C30.1208 16.3959 33.4066 17.0902 36.75 17.2087C38.8575 17.2363 40.9597 17.0121 43 16.542V34.7198Z" fill="#0D4979"/>
<path d="M26.5357 30.2269C26.4565 30.2268 26.3778 30.2147 26.3033 30.1912C26.1596 30.1454 26.0377 30.059 25.9571 29.9457C25.8765 29.8325 25.842 29.699 25.859 29.5667L26.3853 25.3499H22.3589C22.2348 25.35 22.1129 25.3208 22.0064 25.2652C21.8998 25.2096 21.8128 25.1299 21.7544 25.0345C21.6961 24.9391 21.6687 24.8317 21.6753 24.7238C21.6818 24.6159 21.722 24.5116 21.7916 24.4221L27.1851 17.404C27.2704 17.2941 27.3955 17.2122 27.5404 17.1713C27.6853 17.1304 27.8418 17.1327 27.985 17.178C28.1226 17.2224 28.2402 17.3043 28.3202 17.4114C28.4002 17.5185 28.4385 17.6452 28.4293 17.7727L27.9029 22.0193H31.9293C32.0535 22.0191 32.1754 22.0484 32.2819 22.1039C32.3884 22.1595 32.4755 22.2393 32.5338 22.3346C32.5922 22.43 32.6195 22.5374 32.613 22.6453C32.6064 22.7532 32.5662 22.8576 32.4967 22.9471L27.1031 29.9652C27.0404 30.0459 26.9559 30.112 26.8569 30.1576C26.758 30.2032 26.6477 30.227 26.5357 30.2269Z" fill="#65C77E"/>
</svg>
