<svg width="56" height="57" viewBox="0 0 56 57" fill="none" xmlns="http://www.w3.org/2000/svg">
<rect x="0.00012207" y="0.964111" width="56" height="56" rx="12" fill="#E7EEF6"/>
<path d="M46.1751 12.6974C45.6044 12.3319 44.9448 12.0911 44.2498 11.9946C43.5549 11.8981 42.8441 11.9485 42.1751 12.1419C40.4105 12.583 38.5829 12.7926 36.7501 12.7641C34.0416 12.6334 31.3859 12.0452 28.9251 11.0308C25.8852 9.78107 22.597 9.07868 19.2502 8.96411C12.0252 8.96411 9.25016 11.1863 8.75016 11.4974C8.51094 11.7059 8.32127 11.9549 8.19243 12.2298C8.06359 12.5046 7.99821 12.7997 8.00016 13.0974V46.7419C8.00016 47.3313 8.26356 47.8965 8.7324 48.3132C9.20124 48.73 9.83712 48.9641 10.5002 48.9641C11.1632 48.9641 11.7991 48.73 12.2679 48.3132C12.7368 47.8965 13.0002 47.3313 13.0002 46.7419V37.1863C14.9922 36.5084 17.1188 36.1984 19.2502 36.2752C21.9587 36.4059 24.6144 36.9942 27.0751 38.0086C30.1151 39.2583 33.4033 39.9607 36.7501 40.0752C39.7639 40.1764 42.762 39.6434 45.5001 38.5197C46.2381 38.2115 46.8638 37.7252 47.3059 37.1161C47.7479 36.5071 47.9885 35.7999 48.0001 35.0752V15.8752C47.9992 15.2552 47.8335 14.6441 47.5163 14.0918C47.1991 13.5396 46.7396 13.0618 46.1751 12.6974ZM43.0001 34.7197C41.0073 35.3952 38.8813 35.7052 36.7501 35.6308C34.0383 35.503 31.3804 34.9067 28.9251 33.8752C25.8794 32.6436 22.5936 31.9492 19.2502 31.8308C17.1439 31.7985 15.0422 32.0152 13.0002 32.4752V14.3419C14.9876 13.6471 17.1164 13.3292 19.2502 13.4086C21.962 13.5363 24.6199 14.1326 27.0751 15.1641C30.1209 16.3958 33.4067 17.0901 36.7501 17.2086C38.8577 17.2362 40.9598 17.012 43.0001 16.5419V34.7197Z" fill="#00518B"/>
<path d="M26.5358 30.2267C26.4566 30.2267 26.3779 30.2146 26.3034 30.1911C26.1597 30.1453 26.0378 30.0588 25.9572 29.9456C25.8767 29.8324 25.8421 29.6989 25.8591 29.5666L26.3855 25.3498H22.3591C22.2349 25.3499 22.113 25.3206 22.0065 25.2651C21.9 25.2095 21.8129 25.1297 21.7545 25.0344C21.6962 24.939 21.6688 24.8316 21.6754 24.7237C21.6819 24.6158 21.7221 24.5115 21.7917 24.4219L27.1853 17.4038C27.2706 17.294 27.3956 17.2121 27.5405 17.1712C27.6854 17.1302 27.8419 17.1326 27.9851 17.1778C28.1227 17.2223 28.2403 17.3041 28.3203 17.4113C28.4003 17.5184 28.4386 17.6451 28.4294 17.7726L27.903 22.0191H31.9294C32.0536 22.019 32.1755 22.0482 32.282 22.1038C32.3885 22.1594 32.4756 22.2391 32.534 22.3345C32.5923 22.4299 32.6197 22.5373 32.6131 22.6452C32.6066 22.7531 32.5664 22.8574 32.4968 22.9469L27.1032 29.965C27.0405 30.0458 26.956 30.1118 26.8571 30.1575C26.7581 30.2031 26.6478 30.2269 26.5358 30.2267Z" fill="#EB7F2C"/>
</svg>
