<svg width="103" height="93" viewBox="0 0 103 93" fill="none" xmlns="http://www.w3.org/2000/svg">
<path d="M21.2537 92.1167C15.5516 92.1167 10.6561 90.092 6.56713 86.0427C2.47485 81.9934 0.428711 77.0764 0.428711 71.2917C0.428711 65.5069 2.47485 60.5899 6.56713 56.5406C10.6561 52.4913 15.5516 50.4667 21.2537 50.4667C27.0384 50.4667 31.9554 52.4913 36.0048 56.5406C40.0541 60.5899 42.0787 65.5069 42.0787 71.2917C42.0787 77.0764 40.0541 81.9934 36.0048 86.0427C31.9554 90.092 27.0384 92.1167 21.2537 92.1167ZM81.7454 92.1167C75.9606 92.1167 71.0436 90.092 66.9943 86.0427C62.945 81.9934 60.9204 77.0764 60.9204 71.2917C60.9204 65.5069 62.945 60.5899 66.9943 56.5406C71.0436 52.4913 75.9606 50.4667 81.7454 50.4667C87.4475 50.4667 92.343 52.4913 96.432 56.5406C100.524 60.5899 102.57 65.5069 102.57 71.2917C102.57 77.0764 100.524 81.9934 96.432 86.0427C92.343 90.092 87.4475 92.1167 81.7454 92.1167ZM21.2537 80.8364C23.8982 80.8364 26.1509 79.9076 28.0119 78.0499C29.8696 76.1889 30.7985 73.9361 30.7985 71.2917C30.7985 68.6472 29.8696 66.3945 28.0119 64.5335C26.1509 62.6757 23.8982 61.7469 21.2537 61.7469C18.6919 61.7469 16.4607 62.6757 14.56 64.5335C12.6593 66.3945 11.7089 68.6472 11.7089 71.2917C11.7089 73.9361 12.6593 76.1889 14.56 78.0499C16.4607 79.9076 18.6919 80.8364 21.2537 80.8364ZM81.7454 80.8364C84.3072 80.8364 86.5384 79.9076 88.4391 78.0499C90.3398 76.1889 91.2902 73.9361 91.2902 71.2917C91.2902 68.6472 90.3398 66.3945 88.4391 64.5335C86.5384 62.6757 84.3072 61.7469 81.7454 61.7469C79.1009 61.7469 76.8499 62.6757 74.9921 64.5335C73.1311 66.3945 72.2006 68.6472 72.2006 71.2917C72.2006 73.9361 73.1311 76.1889 74.9921 78.0499C76.8499 79.9076 79.1009 80.8364 81.7454 80.8364ZM51.4995 41.6656C45.7148 41.6656 40.7978 39.6195 36.7485 35.5272C32.6992 31.4382 30.6745 26.5427 30.6745 20.8406C30.6745 15.0559 32.6992 10.1389 36.7485 6.08958C40.7978 2.04028 45.7148 0.015625 51.4995 0.015625C57.2843 0.015625 62.2013 2.04028 66.2506 6.08958C70.2999 10.1389 72.3245 15.0559 72.3245 20.8406C72.3245 26.5427 70.2999 31.4382 66.2506 35.5272C62.2013 39.6195 57.2843 41.6656 51.4995 41.6656ZM51.4995 30.3854C54.144 30.3854 56.3967 29.4351 58.2577 27.5344C60.1155 25.6337 61.0443 23.4024 61.0443 20.8406C61.0443 18.1962 60.1155 15.9434 58.2577 14.0824C56.3967 12.2247 54.144 11.2958 51.4995 11.2958C48.8551 11.2958 46.604 12.2247 44.7463 14.0824C42.8853 15.9434 41.9548 18.1962 41.9548 20.8406C41.9548 23.4024 42.8853 25.6337 44.7463 27.5344C46.604 29.4351 48.8551 30.3854 51.4995 30.3854Z" fill="#B7BABF"/>
</svg>
