<svg width="124" height="132" viewBox="0 0 124 132" fill="none" xmlns="http://www.w3.org/2000/svg">
<path d="M124 42.1645C124 65.4513 105.184 84.329 81.9732 84.329C58.7624 84.329 39.9463 65.4513 39.9463 42.1645C39.9463 18.8777 58.7624 0 81.9732 0C105.184 0 124 18.8777 124 42.1645Z" fill="#DEE6E9"/>
<path d="M67.4094 93.0959C67.4094 111.771 52.3193 126.911 33.7047 126.911C15.0901 126.911 0 111.771 0 93.0959C0 74.4203 15.0901 59.2808 33.7047 59.2808C52.3193 59.2808 67.4094 74.4203 67.4094 93.0959Z" fill="#DEE6E9"/>
<path d="M7.00616 30.0104C6.81372 26.3264 9.63439 23.1835 13.3063 22.9904L91.4273 18.8829C95.0992 18.6898 98.2319 21.5197 98.4243 25.2037L102.518 103.581C102.711 107.265 99.8902 110.407 96.2183 110.601L18.0973 114.708C14.4254 114.901 11.2927 112.071 11.1003 108.387L7.00616 30.0104Z" fill="#FFC96F"/>
<path d="M12.125 34.6552C11.7725 30.9832 14.4539 27.7198 18.1139 27.3662L95.9819 19.8438C99.642 19.4902 102.895 22.1803 103.247 25.8524L110.745 103.975C111.097 107.647 108.416 110.911 104.756 111.264L26.888 118.787C23.2279 119.14 19.9752 116.45 19.6228 112.778L12.125 34.6552Z" fill="#8FC18C"/>
<path d="M12.3191 23.3783C12.3191 19.6893 15.2998 16.6988 18.9768 16.6988H97.205C100.882 16.6988 103.863 19.6893 103.863 23.3783V101.863C103.863 105.552 100.882 108.542 97.205 108.542H18.9768C15.2998 108.542 12.3191 105.552 12.3191 101.863V23.3783Z" fill="#59808F"/>
<path d="M71.2276 59.878C71.6846 59.0817 72.7924 59.0817 73.2495 59.878L86.2176 82.4736C86.6867 83.291 86.1211 84.329 85.2066 84.329H59.2704C58.3559 84.329 57.7903 83.291 58.2594 82.4736L71.2276 59.878Z" fill="#7A9AA5"/>
<path d="M48.7279 50.0976C49.3865 48.9828 50.9831 48.9828 51.6418 50.0976L70.3311 81.7315C71.0072 82.8758 70.1921 84.329 68.8742 84.329H31.4955C30.1775 84.329 29.3624 82.8758 30.0385 81.7315L48.7279 50.0976Z" fill="#9CB3BB"/>
<path d="M86.3862 37.9898C86.3862 41.9094 83.2191 45.0868 79.3123 45.0868C75.4056 45.0868 72.2385 41.9094 72.2385 37.9898C72.2385 34.0702 75.4056 30.8928 79.3123 30.8928C83.2191 30.8928 86.3862 34.0702 86.3862 37.9898Z" fill="#BCCED2"/>
<path d="M64.9128 121.066C64.9128 121.989 64.1676 122.736 63.2483 122.736C62.3291 122.736 61.5839 121.989 61.5839 121.066C61.5839 120.144 62.3291 119.397 63.2483 119.397C64.1676 119.397 64.9128 120.144 64.9128 121.066Z" fill="#D9D9D9"/>
<path d="M47.4362 10.8542C47.4362 11.7765 46.6911 12.5241 45.7718 12.5241C44.8526 12.5241 44.1074 11.7765 44.1074 10.8542C44.1074 9.93198 44.8526 9.18435 45.7718 9.18435C46.6911 9.18435 47.4362 9.93198 47.4362 10.8542Z" fill="#D9D9D9"/>
<path d="M82.3893 127.328C82.3893 129.404 80.7126 131.086 78.6443 131.086C76.576 131.086 74.8993 129.404 74.8993 127.328C74.8993 125.253 76.576 123.571 78.6443 123.571C80.7126 123.571 82.3893 125.253 82.3893 127.328Z" fill="#D9D9D9"/>
<path d="M34.1208 5.42711C34.1208 7.50218 32.4441 9.18435 30.3758 9.18435C28.3076 9.18435 26.6309 7.50218 26.6309 5.42711C26.6309 3.35205 28.3076 1.66988 30.3758 1.66988C32.4441 1.66988 34.1208 3.35205 34.1208 5.42711Z" fill="#D9D9D9"/>
</svg>
