<svg width="56" height="57" viewBox="0 0 56 57" fill="none" xmlns="http://www.w3.org/2000/svg">
<rect x="0.00012207" y="0.964233" width="56.0002" height="55.9999" rx="12" fill="#E7EEF6"/>
<g clip-path="url(#clip0_1231_3974)">
<path d="M28.6325 28.8944C28.466 28.7312 28.2421 28.6398 28.009 28.6398C27.7759 28.6398 27.5521 28.7312 27.3856 28.8944L24.7137 31.4772C24.6192 31.5552 24.5418 31.6518 24.4864 31.7611C24.4309 31.8703 24.3986 31.9898 24.3914 32.1122C24.3843 32.2345 24.4025 32.3569 24.4448 32.4719C24.4871 32.5869 24.5528 32.6919 24.6375 32.7804C24.7223 32.8688 24.8244 32.9388 24.9375 32.986C25.0506 33.0332 25.1721 33.0566 25.2947 33.0546C25.4172 33.0527 25.538 33.0255 25.6495 32.9747C25.761 32.924 25.8608 32.8508 25.9428 32.7597L27.1095 31.6286V36.6517C27.1095 36.8879 27.2033 37.1144 27.3703 37.2815C27.5374 37.4485 27.7639 37.5423 28.0001 37.5423C28.2363 37.5423 28.4629 37.4485 28.6299 37.2815C28.7969 37.1144 28.8907 36.8879 28.8907 36.6517V31.6731L30.0396 32.8309C30.1224 32.9144 30.2209 32.9807 30.3295 33.0259C30.438 33.0711 30.5544 33.0944 30.672 33.0944C30.7896 33.0944 30.906 33.0711 31.0145 33.0259C31.123 32.9807 31.2215 32.9144 31.3043 32.8309C31.3878 32.7481 31.4541 32.6496 31.4993 32.5411C31.5445 32.4326 31.5678 32.3162 31.5678 32.1986C31.5678 32.081 31.5445 31.9646 31.4993 31.8561C31.4541 31.7475 31.3878 31.649 31.3043 31.5662L28.6325 28.8944Z" fill="#EB7F2C"/>
<path d="M33.05 25.0736C32.6866 24.0236 32.0049 23.113 31.0998 22.4685C30.1947 21.824 29.1112 21.4777 28.0001 21.4777C26.889 21.4777 25.8055 21.824 24.9005 22.4685C23.9954 23.113 23.3137 24.0236 22.9503 25.0736C22.1501 25.1808 21.3941 25.5035 20.7632 26.0072C20.1322 26.5109 19.6501 27.1766 19.3683 27.9331C19.0866 28.6897 19.0158 29.5086 19.1635 30.3023C19.3113 31.096 19.672 31.8346 20.2072 32.4391C20.2718 32.553 20.3607 32.6512 20.4677 32.7267C20.5746 32.8023 20.6969 32.8533 20.8258 32.8763C20.9547 32.8992 21.0871 32.8934 21.2135 32.8593C21.3399 32.8252 21.4572 32.7637 21.5572 32.6791C21.6571 32.5945 21.7371 32.4889 21.7916 32.3698C21.8461 32.2508 21.8736 32.1212 21.8722 31.9902C21.8709 31.8593 21.8407 31.7303 21.7838 31.6124C21.7269 31.4945 21.6447 31.3905 21.5431 31.308C21.1985 30.9228 20.9731 30.4459 20.8941 29.9351C20.8151 29.4243 20.8859 28.9016 21.098 28.4303C21.3101 27.959 21.6544 27.5593 22.089 27.2796C22.5237 27 23.0302 26.8525 23.547 26.8549H23.6361C23.8444 26.8591 24.0477 26.7901 24.2104 26.6599C24.3731 26.5297 24.485 26.3466 24.5267 26.1424C24.6902 25.337 25.1271 24.613 25.7634 24.093C26.3997 23.5729 27.1962 23.2888 28.0179 23.2888C28.8397 23.2888 29.6362 23.5729 30.2725 24.093C30.9087 24.613 31.3457 25.337 31.5092 26.1424C31.5508 26.3466 31.6627 26.5297 31.8255 26.6599C31.9882 26.7901 32.1914 26.8591 32.3998 26.8549H32.4532C32.9701 26.8525 33.4765 27 33.9112 27.2796C34.3459 27.5593 34.6901 27.959 34.9022 28.4303C35.1143 28.9016 35.1852 29.4243 35.1062 29.9351C35.0272 30.4459 34.8017 30.9228 34.4571 31.308C34.3787 31.396 34.3185 31.4987 34.28 31.6101C34.2415 31.7215 34.2256 31.8394 34.233 31.9571C34.2405 32.0747 34.2712 32.1897 34.3235 32.2954C34.3757 32.4011 34.4484 32.4953 34.5373 32.5727C34.6997 32.7159 34.9086 32.795 35.1251 32.7953C35.2516 32.7952 35.3765 32.7681 35.4917 32.7159C35.6069 32.6637 35.7096 32.5875 35.7931 32.4925C36.3431 31.8891 36.7166 31.146 36.8727 30.3446C37.0289 29.5432 36.9617 28.7143 36.6786 27.9485C36.3954 27.1827 35.9072 26.5095 35.2672 26.0025C34.6273 25.4955 33.8602 25.1741 33.05 25.0736Z" fill="#EB7F2C"/>
</g>
<path fill-rule="evenodd" clip-rule="evenodd" d="M10.7003 38.8643C10.7003 37.7597 11.5957 36.8643 12.7003 36.8643H18.1003C19.2049 36.8643 20.1003 37.7597 20.1003 38.8643C20.1003 39.9688 19.2049 40.8643 18.1003 40.8643H14.7003V44.2643C14.7003 45.3688 13.8049 46.2643 12.7003 46.2643C11.5957 46.2643 10.7003 45.3688 10.7003 44.2643V38.8643Z" fill="#00518B"/>
<path fill-rule="evenodd" clip-rule="evenodd" d="M37.9005 36.8643C39.0051 36.8643 39.9005 37.7597 39.9005 38.8643V42.2643H43.3005C44.4051 42.2643 45.3005 43.1597 45.3005 44.2643C45.3005 45.3688 44.4051 46.2643 43.3005 46.2643H37.9005C36.7959 46.2643 35.9005 45.3688 35.9005 44.2643V38.8643C35.9005 37.7597 36.7959 36.8643 37.9005 36.8643Z" fill="#00518B"/>
<path fill-rule="evenodd" clip-rule="evenodd" d="M43.3005 11.6642C44.4051 11.6642 45.3005 12.5596 45.3005 13.6642V19.0642C45.3005 20.1688 44.4051 21.0642 43.3005 21.0642H37.9005C36.7959 21.0642 35.9005 20.1688 35.9005 19.0642C35.9005 17.9596 36.7959 17.0642 37.9005 17.0642H41.3005V13.6642C41.3005 12.5596 42.1959 11.6642 43.3005 11.6642Z" fill="#00518B"/>
<path fill-rule="evenodd" clip-rule="evenodd" d="M10.7003 13.6642C10.7003 12.5596 11.5957 11.6642 12.7003 11.6642H18.1003C19.2049 11.6642 20.1003 12.5596 20.1003 13.6642V19.0642C20.1003 20.1688 19.2049 21.0642 18.1003 21.0642C16.9957 21.0642 16.1003 20.1688 16.1003 19.0642V15.6642H12.7003C11.5957 15.6642 10.7003 14.7688 10.7003 13.6642Z" fill="#00518B"/>
<path fill-rule="evenodd" clip-rule="evenodd" d="M19.7695 12.8274C20.3778 13.7494 20.1235 14.9899 19.2015 15.5982C14.8587 18.4635 12.0001 23.3805 12.0001 28.9642C12.0001 29.7819 12.0613 30.5841 12.179 31.3667C12.3433 32.4589 11.591 33.4776 10.4988 33.6419C9.40648 33.8062 8.38782 33.0539 8.22352 31.9616C8.07628 30.9828 8.00012 29.9817 8.00012 28.9642C8.00012 21.9801 11.5816 15.8335 16.9987 12.2594C17.9207 11.6511 19.1612 11.9054 19.7695 12.8274Z" fill="#00518B"/>
<path fill-rule="evenodd" clip-rule="evenodd" d="M11.8639 37.1948C12.7858 36.5865 14.0264 36.8408 14.6347 37.7628C17.5 42.1056 22.4169 44.9642 28.0006 44.9642C28.8183 44.9642 29.6205 44.903 30.4031 44.7853C31.4954 44.621 32.5141 45.3733 32.6784 46.4656C32.8427 47.5579 32.0904 48.5765 30.9981 48.7408C30.0192 48.8881 29.0182 48.9642 28.0006 48.9642C21.0166 48.9642 14.87 45.3828 11.2959 39.9657C10.6876 39.0437 10.9419 37.8031 11.8639 37.1948Z" fill="#00518B"/>
<path fill-rule="evenodd" clip-rule="evenodd" d="M45.5017 24.2866C46.5939 24.1223 47.6126 24.8745 47.7769 25.9668C47.9241 26.9457 48.0003 27.9468 48.0003 28.9643C48.0003 35.9484 44.4188 42.0949 39.0017 45.6691C38.0798 46.2774 36.8392 46.0231 36.2309 45.1011C35.6226 44.1792 35.8769 42.9386 36.7989 42.3303C41.1417 39.465 44.0003 34.548 44.0003 28.9643C44.0003 28.1466 43.9391 27.3444 43.8214 26.5618C43.6571 25.4695 44.4094 24.4509 45.5017 24.2866Z" fill="#00518B"/>
<path fill-rule="evenodd" clip-rule="evenodd" d="M28.0002 12.9642C27.1825 12.9642 26.3803 13.0254 25.5977 13.1431C24.5054 13.3074 23.4867 12.5552 23.3224 11.4629C23.1581 10.3706 23.9104 9.35193 25.0027 9.18763C25.9816 9.04039 26.9826 8.96423 28.0002 8.96423C34.9843 8.96423 41.1308 12.5457 44.705 17.9628C45.3133 18.8848 45.059 20.1253 44.137 20.7336C43.215 21.3419 41.9745 21.0876 41.3662 20.1657C38.5008 15.8228 33.5839 12.9642 28.0002 12.9642Z" fill="#00518B"/>
<defs>
<clipPath id="clip0_1231_3974">
<rect width="21.375" height="21.375" fill="white" transform="translate(17.3126 18.8392)"/>
</clipPath>
</defs>
</svg>
