<svg width="56" height="57" viewBox="0 0 56 57" fill="none" xmlns="http://www.w3.org/2000/svg">
<rect y="0.964294" width="56.0002" height="55.9999" rx="12" fill="#E2FAE8"/>
<g clip-path="url(#clip0_649_5485)">
<path d="M28.6322 28.8944C28.4657 28.7312 28.2419 28.6398 28.0087 28.6398C27.7756 28.6398 27.5518 28.7312 27.3853 28.8944L24.7134 31.4772C24.6189 31.5552 24.5415 31.6519 24.4861 31.7611C24.4306 31.8704 24.3983 31.9899 24.3912 32.1122C24.384 32.2345 24.4022 32.357 24.4445 32.472C24.4869 32.587 24.5525 32.692 24.6373 32.7804C24.722 32.8689 24.8241 32.9389 24.9372 32.9861C25.0503 33.0333 25.1719 33.0566 25.2944 33.0547C25.4169 33.0528 25.5377 33.0256 25.6492 32.9748C25.7607 32.9241 25.8606 32.8508 25.9425 32.7597L27.1092 31.6286V36.6518C27.1092 36.888 27.203 37.1145 27.3701 37.2815C27.5371 37.4486 27.7636 37.5424 27.9998 37.5424C28.236 37.5424 28.4626 37.4486 28.6296 37.2815C28.7966 37.1145 28.8905 36.888 28.8905 36.6518V31.6732L30.0394 32.831C30.1222 32.9145 30.2207 32.9807 30.3292 33.0259C30.4377 33.0711 30.5541 33.0944 30.6717 33.0944C30.7893 33.0944 30.9057 33.0711 31.0142 33.0259C31.1228 32.9807 31.2213 32.9145 31.3041 32.831C31.3875 32.7482 31.4538 32.6497 31.499 32.5412C31.5442 32.4326 31.5675 32.3162 31.5675 32.1986C31.5675 32.0811 31.5442 31.9647 31.499 31.8561C31.4538 31.7476 31.3875 31.6491 31.3041 31.5663L28.6322 28.8944Z" fill="#65C77E"/>
<path d="M33.05 25.0737C32.6866 24.0237 32.0049 23.1131 31.0999 22.4686C30.1948 21.8241 29.1113 21.4777 28.0002 21.4777C26.8891 21.4777 25.8056 21.8241 24.9005 22.4686C23.9954 23.1131 23.3138 24.0237 22.9503 25.0737C22.1502 25.1809 21.3942 25.5036 20.7632 26.0072C20.1323 26.5109 19.6502 27.1766 19.3684 27.9332C19.0866 28.6898 19.0158 29.5087 19.1636 30.3024C19.3113 31.0961 19.6721 31.8347 20.2072 32.4392C20.2719 32.553 20.3608 32.6512 20.4677 32.7268C20.5747 32.8023 20.6969 32.8534 20.8258 32.8763C20.9547 32.8992 21.0871 32.8935 21.2135 32.8594C21.34 32.8253 21.4573 32.7638 21.5572 32.6792C21.6572 32.5946 21.7372 32.489 21.7917 32.3699C21.8461 32.2508 21.8737 32.1212 21.8723 31.9903C21.871 31.8594 21.8408 31.7304 21.7839 31.6124C21.727 31.4945 21.6448 31.3906 21.5432 31.3081C21.1986 30.9228 20.9731 30.4459 20.8941 29.9352C20.8152 29.4244 20.886 28.9017 21.0981 28.4303C21.3102 27.959 21.6544 27.5593 22.0891 27.2797C22.5238 27.0001 23.0302 26.8525 23.5471 26.8549H23.6361C23.8445 26.8591 24.0477 26.7901 24.2104 26.66C24.3732 26.5298 24.4851 26.3466 24.5267 26.1424C24.6903 25.3371 25.1272 24.6131 25.7635 24.093C26.3997 23.573 27.1962 23.2889 28.018 23.2889C28.8398 23.2889 29.6363 23.573 30.2725 24.093C30.9088 24.6131 31.3457 25.3371 31.5092 26.1424C31.5509 26.3466 31.6628 26.5298 31.8255 26.66C31.9883 26.7901 32.1915 26.8591 32.3999 26.8549H32.4533C32.9701 26.8525 33.4766 27.0001 33.9113 27.2797C34.3459 27.5593 34.6902 27.959 34.9023 28.4303C35.1144 28.9017 35.1852 29.4244 35.1062 29.9352C35.0272 30.4459 34.8018 30.9228 34.4572 31.3081C34.3788 31.396 34.3186 31.4987 34.2801 31.6101C34.2416 31.7216 34.2256 31.8395 34.2331 31.9571C34.2405 32.0748 34.2713 32.1898 34.3235 32.2955C34.3757 32.4011 34.4484 32.4954 34.5374 32.5727C34.6997 32.7159 34.9087 32.7951 35.1252 32.7954C35.2516 32.7952 35.3766 32.7682 35.4918 32.7159C35.607 32.6637 35.7097 32.5876 35.7931 32.4926C36.3431 31.8891 36.7166 31.1461 36.8728 30.3447C37.029 29.5433 36.9618 28.7144 36.6786 27.9486C36.3955 27.1828 35.9072 26.5096 35.2673 26.0026C34.6273 25.4955 33.8603 25.1742 33.05 25.0737Z" fill="#65C77E"/>
</g>
<path fill-rule="evenodd" clip-rule="evenodd" d="M10.7002 38.8643C10.7002 37.7597 11.5956 36.8643 12.7002 36.8643H18.1002C19.2048 36.8643 20.1002 37.7597 20.1002 38.8643C20.1002 39.9688 19.2048 40.8643 18.1002 40.8643H14.7002V44.2643C14.7002 45.3688 13.8048 46.2643 12.7002 46.2643C11.5956 46.2643 10.7002 45.3688 10.7002 44.2643V38.8643Z" fill="#0D4979"/>
<path fill-rule="evenodd" clip-rule="evenodd" d="M37.9004 36.8643C39.005 36.8643 39.9004 37.7597 39.9004 38.8643V42.2643H43.3004C44.405 42.2643 45.3004 43.1597 45.3004 44.2643C45.3004 45.3688 44.405 46.2643 43.3004 46.2643H37.9004C36.7958 46.2643 35.9004 45.3688 35.9004 44.2643V38.8643C35.9004 37.7597 36.7958 36.8643 37.9004 36.8643Z" fill="#0D4979"/>
<path fill-rule="evenodd" clip-rule="evenodd" d="M43.3004 11.6642C44.405 11.6642 45.3004 12.5597 45.3004 13.6642V19.0642C45.3004 20.1688 44.405 21.0642 43.3004 21.0642H37.9004C36.7958 21.0642 35.9004 20.1688 35.9004 19.0642C35.9004 17.9597 36.7958 17.0642 37.9004 17.0642H41.3004V13.6642C41.3004 12.5597 42.1958 11.6642 43.3004 11.6642Z" fill="#0D4979"/>
<path fill-rule="evenodd" clip-rule="evenodd" d="M10.7002 13.6642C10.7002 12.5597 11.5956 11.6642 12.7002 11.6642H18.1002C19.2048 11.6642 20.1002 12.5597 20.1002 13.6642V19.0642C20.1002 20.1688 19.2048 21.0642 18.1002 21.0642C16.9956 21.0642 16.1002 20.1688 16.1002 19.0642V15.6642H12.7002C11.5956 15.6642 10.7002 14.7688 10.7002 13.6642Z" fill="#0D4979"/>
<path fill-rule="evenodd" clip-rule="evenodd" d="M19.7694 12.8274C20.3777 13.7494 20.1234 14.99 19.2014 15.5983C14.8586 18.4636 12 23.3805 12 28.9642C12 29.7819 12.0612 30.5841 12.1789 31.3667C12.3432 32.459 11.5909 33.4777 10.4986 33.642C9.40636 33.8063 8.3877 33.054 8.2234 31.9617C8.07616 30.9828 8 29.9818 8 28.9642C8 21.9801 11.5814 15.8336 16.9986 12.2595C17.9205 11.6512 19.1611 11.9055 19.7694 12.8274Z" fill="#0D4979"/>
<path fill-rule="evenodd" clip-rule="evenodd" d="M11.8636 37.1948C12.7856 36.5865 14.0262 36.8408 14.6345 37.7628C17.4998 42.1056 22.4167 44.9642 28.0004 44.9642C28.8181 44.9642 29.6203 44.903 30.4029 44.7853C31.4952 44.621 32.5139 45.3733 32.6782 46.4656C32.8425 47.5579 32.0902 48.5765 30.9979 48.7408C30.019 48.8881 29.018 48.9642 28.0004 48.9642C21.0163 48.9642 14.8698 45.3828 11.2957 39.9657C10.6874 39.0437 10.9417 37.8031 11.8636 37.1948Z" fill="#0D4979"/>
<path fill-rule="evenodd" clip-rule="evenodd" d="M45.5015 24.2866C46.5938 24.1223 47.6124 24.8745 47.7767 25.9668C47.924 26.9457 48.0001 27.9468 48.0001 28.9643C48.0001 35.9484 44.4187 42.0949 39.0016 45.6691C38.0796 46.2774 36.839 46.0231 36.2307 45.1011C35.6224 44.1792 35.8767 42.9386 36.7987 42.3303C41.1415 39.465 44.0001 34.548 44.0001 28.9643C44.0001 28.1466 43.9389 27.3444 43.8212 26.5618C43.6569 25.4695 44.4092 24.4509 45.5015 24.2866Z" fill="#0D4979"/>
<path fill-rule="evenodd" clip-rule="evenodd" d="M28.0001 12.9643C27.1824 12.9643 26.3802 13.0255 25.5976 13.1432C24.5053 13.3075 23.4866 12.5552 23.3223 11.4629C23.158 10.3707 23.9103 9.35199 25.0026 9.18769C25.9815 9.04045 26.9825 8.96429 28.0001 8.96429C34.9841 8.96429 41.1307 12.5457 44.7049 17.9629C45.3132 18.8848 45.0589 20.1254 44.1369 20.7337C43.2149 21.342 41.9744 21.0877 41.3661 20.1657C38.5007 15.8229 33.5838 12.9643 28.0001 12.9643Z" fill="#0D4979"/>
<defs>
<clipPath id="clip0_649_5485">
<rect width="21.375" height="21.375" fill="white" transform="translate(17.3125 18.8393)"/>
</clipPath>
</defs>
</svg>
