<svg width="56" height="57" viewBox="0 0 56 57" fill="none" xmlns="http://www.w3.org/2000/svg">
<rect y="0.964355" width="56.0002" height="55.9999" rx="12" fill="#E1ECD4"/>
<path d="M28.6322 28.8945C28.4657 28.7313 28.2419 28.6399 28.0087 28.6399C27.7756 28.6399 27.5518 28.7313 27.3853 28.8945L24.7134 31.4773C24.6189 31.5553 24.5415 31.6519 24.4861 31.7612C24.4306 31.8704 24.3983 31.99 24.3912 32.1123C24.384 32.2346 24.4022 32.3571 24.4445 32.472C24.4869 32.587 24.5525 32.692 24.6373 32.7805C24.722 32.8689 24.8241 32.939 24.9372 32.9861C25.0503 33.0333 25.1719 33.0567 25.2944 33.0548C25.4169 33.0528 25.5377 33.0256 25.6492 32.9749C25.7607 32.9241 25.8606 32.8509 25.9425 32.7598L27.1092 31.6287V36.6518C27.1092 36.888 27.203 37.1146 27.3701 37.2816C27.5371 37.4486 27.7636 37.5424 27.9998 37.5424C28.236 37.5424 28.4626 37.4486 28.6296 37.2816C28.7966 37.1146 28.8905 36.888 28.8905 36.6518V31.6732L30.0394 32.831C30.1222 32.9145 30.2207 32.9808 30.3292 33.026C30.4377 33.0712 30.5541 33.0945 30.6717 33.0945C30.7893 33.0945 30.9057 33.0712 31.0142 33.026C31.1228 32.9808 31.2213 32.9145 31.3041 32.831C31.3875 32.7482 31.4538 32.6497 31.499 32.5412C31.5442 32.4327 31.5675 32.3163 31.5675 32.1987C31.5675 32.0811 31.5442 31.9647 31.499 31.8562C31.4538 31.7477 31.3875 31.6492 31.3041 31.5664L28.6322 28.8945Z" fill="#77B531"/>
<path d="M33.05 25.0737C32.6866 24.0238 32.0049 23.1131 31.0999 22.4686C30.1948 21.8241 29.1113 21.4778 28.0002 21.4778C26.8891 21.4778 25.8056 21.8241 24.9005 22.4686C23.9954 23.1131 23.3138 24.0238 22.9503 25.0737C22.1502 25.1809 21.3942 25.5036 20.7632 26.0073C20.1323 26.511 19.6502 27.1767 19.3684 27.9333C19.0866 28.6898 19.0158 29.5088 19.1636 30.3024C19.3113 31.0961 19.6721 31.8347 20.2072 32.4392C20.2719 32.5531 20.3608 32.6513 20.4677 32.7268C20.5747 32.8024 20.6969 32.8535 20.8258 32.8764C20.9547 32.8993 21.0871 32.8935 21.2135 32.8594C21.34 32.8254 21.4573 32.7638 21.5572 32.6792C21.6572 32.5946 21.7372 32.489 21.7917 32.37C21.8461 32.2509 21.8737 32.1213 21.8723 31.9904C21.871 31.8594 21.8408 31.7304 21.7839 31.6125C21.727 31.4946 21.6448 31.3907 21.5432 31.3081C21.1986 30.9229 20.9731 30.446 20.8941 29.9352C20.8152 29.4244 20.886 28.9017 21.0981 28.4304C21.3102 27.9591 21.6544 27.5594 22.0891 27.2798C22.5238 27.0001 23.0302 26.8526 23.5471 26.855H23.6361C23.8445 26.8592 24.0477 26.7902 24.2104 26.66C24.3732 26.5298 24.4851 26.3467 24.5267 26.1425C24.6903 25.3372 25.1272 24.6131 25.7635 24.0931C26.3997 23.573 27.1962 23.2889 28.018 23.2889C28.8398 23.2889 29.6363 23.573 30.2725 24.0931C30.9088 24.6131 31.3457 25.3372 31.5092 26.1425C31.5509 26.3467 31.6628 26.5298 31.8255 26.66C31.9883 26.7902 32.1915 26.8592 32.3999 26.855H32.4533C32.9701 26.8526 33.4766 27.0001 33.9113 27.2798C34.3459 27.5594 34.6902 27.9591 34.9023 28.4304C35.1144 28.9017 35.1852 29.4244 35.1062 29.9352C35.0272 30.446 34.8018 30.9229 34.4572 31.3081C34.3788 31.3961 34.3186 31.4988 34.2801 31.6102C34.2416 31.7216 34.2256 31.8396 34.2331 31.9572C34.2405 32.0749 34.2713 32.1898 34.3235 32.2955C34.3757 32.4012 34.4484 32.4954 34.5374 32.5728C34.6997 32.716 34.9087 32.7952 35.1252 32.7955C35.2516 32.7953 35.3766 32.7682 35.4918 32.716C35.607 32.6638 35.7097 32.5877 35.7931 32.4927C36.3431 31.8892 36.7166 31.1462 36.8728 30.3448C37.029 29.5434 36.9618 28.7145 36.6786 27.9487C36.3955 27.1829 35.9072 26.5096 35.2673 26.0026C34.6273 25.4956 33.8603 25.1743 33.05 25.0737Z" fill="#77B531"/>
<path fill-rule="evenodd" clip-rule="evenodd" d="M10.7002 38.8643C10.7002 37.7597 11.5956 36.8643 12.7002 36.8643H18.1002C19.2048 36.8643 20.1002 37.7597 20.1002 38.8643C20.1002 39.9688 19.2048 40.8643 18.1002 40.8643H14.7002V44.2643C14.7002 45.3688 13.8048 46.2643 12.7002 46.2643C11.5956 46.2643 10.7002 45.3688 10.7002 44.2643V38.8643Z" fill="#00518B"/>
<path fill-rule="evenodd" clip-rule="evenodd" d="M37.9004 36.8643C39.005 36.8643 39.9004 37.7597 39.9004 38.8643V42.2643H43.3004C44.405 42.2643 45.3004 43.1597 45.3004 44.2643C45.3004 45.3688 44.405 46.2643 43.3004 46.2643H37.9004C36.7958 46.2643 35.9004 45.3688 35.9004 44.2643V38.8643C35.9004 37.7597 36.7958 36.8643 37.9004 36.8643Z" fill="#00518B"/>
<path fill-rule="evenodd" clip-rule="evenodd" d="M43.3004 11.6643C44.405 11.6643 45.3004 12.5597 45.3004 13.6643V19.0643C45.3004 20.1689 44.405 21.0643 43.3004 21.0643H37.9004C36.7958 21.0643 35.9004 20.1689 35.9004 19.0643C35.9004 17.9597 36.7958 17.0643 37.9004 17.0643H41.3004V13.6643C41.3004 12.5597 42.1958 11.6643 43.3004 11.6643Z" fill="#00518B"/>
<path fill-rule="evenodd" clip-rule="evenodd" d="M10.7002 13.6643C10.7002 12.5597 11.5956 11.6643 12.7002 11.6643H18.1002C19.2048 11.6643 20.1002 12.5597 20.1002 13.6643V19.0643C20.1002 20.1689 19.2048 21.0643 18.1002 21.0643C16.9956 21.0643 16.1002 20.1689 16.1002 19.0643V15.6643H12.7002C11.5956 15.6643 10.7002 14.7689 10.7002 13.6643Z" fill="#00518B"/>
<path fill-rule="evenodd" clip-rule="evenodd" d="M19.7694 12.8275C20.3777 13.7495 20.1234 14.99 19.2014 15.5983C14.8586 18.4636 12 23.3806 12 28.9643C12 29.782 12.0612 30.5842 12.1789 31.3668C12.3432 32.4591 11.5909 33.4777 10.4986 33.642C9.40636 33.8063 8.3877 33.0541 8.2234 31.9618C8.07616 30.9829 8 29.9818 8 28.9643C8 21.9802 11.5814 15.8336 16.9986 12.2595C17.9205 11.6512 19.1611 11.9055 19.7694 12.8275Z" fill="#00518B"/>
<path fill-rule="evenodd" clip-rule="evenodd" d="M11.8636 37.195C12.7856 36.5867 14.0262 36.841 14.6345 37.7629C17.4998 42.1058 22.4167 44.9644 28.0004 44.9644C28.8181 44.9644 29.6203 44.9032 30.4029 44.7855C31.4952 44.6212 32.5139 45.3734 32.6782 46.4657C32.8425 47.558 32.0902 48.5767 30.9979 48.741C30.019 48.8882 29.018 48.9644 28.0004 48.9644C21.0163 48.9644 14.8698 45.3829 11.2957 39.9658C10.6874 39.0438 10.9417 37.8033 11.8636 37.195Z" fill="#00518B"/>
<path fill-rule="evenodd" clip-rule="evenodd" d="M45.5015 24.2867C46.5938 24.1224 47.6124 24.8747 47.7767 25.9669C47.924 26.9458 48.0001 27.9469 48.0001 28.9644C48.0001 35.9485 44.4187 42.0951 39.0016 45.6692C38.0796 46.2775 36.839 46.0232 36.2307 45.1013C35.6224 44.1793 35.8767 42.9387 36.7987 42.3304C41.1415 39.4651 44.0001 34.5481 44.0001 28.9644C44.0001 28.1467 43.9389 27.3445 43.8212 26.5619C43.6569 25.4696 44.4092 24.451 45.5015 24.2867Z" fill="#00518B"/>
<path fill-rule="evenodd" clip-rule="evenodd" d="M28.0001 12.9644C27.1824 12.9644 26.3802 13.0255 25.5976 13.1433C24.5053 13.3076 23.4866 12.5553 23.3223 11.463C23.158 10.3707 23.9103 9.35205 25.0026 9.18775C25.9815 9.04051 26.9825 8.96436 28.0001 8.96436C34.9841 8.96436 41.1307 12.5458 44.7049 17.9629C45.3132 18.8849 45.0589 20.1254 44.1369 20.7337C43.2149 21.342 41.9744 21.0878 41.3661 20.1658C38.5007 15.8229 33.5838 12.9644 28.0001 12.9644Z" fill="#00518B"/>
</svg>
