<svg width="56" height="57" viewBox="0 0 56 57" fill="none" xmlns="http://www.w3.org/2000/svg">
<rect x="0.00012207" y="0.964355" width="56.0002" height="55.9999" rx="12" fill="#E6EEF3"/>
<g clip-path="url(#clip0_1231_3974)">
<path d="M28.6325 28.8945C28.466 28.7313 28.2421 28.6399 28.009 28.6399C27.7759 28.6399 27.5521 28.7313 27.3856 28.8945L24.7137 31.4773C24.6192 31.5553 24.5418 31.6519 24.4864 31.7612C24.4309 31.8704 24.3986 31.99 24.3914 32.1123C24.3843 32.2346 24.4025 32.3571 24.4448 32.472C24.4871 32.587 24.5528 32.692 24.6375 32.7805C24.7223 32.8689 24.8244 32.939 24.9375 32.9861C25.0506 33.0333 25.1721 33.0567 25.2947 33.0548C25.4172 33.0528 25.538 33.0256 25.6495 32.9749C25.761 32.9241 25.8608 32.8509 25.9428 32.7598L27.1095 31.6287V36.6518C27.1095 36.888 27.2033 37.1146 27.3703 37.2816C27.5374 37.4486 27.7639 37.5424 28.0001 37.5424C28.2363 37.5424 28.4629 37.4486 28.6299 37.2816C28.7969 37.1146 28.8907 36.888 28.8907 36.6518V31.6732L30.0396 32.831C30.1224 32.9145 30.2209 32.9808 30.3295 33.026C30.438 33.0712 30.5544 33.0945 30.672 33.0945C30.7896 33.0945 30.906 33.0712 31.0145 33.026C31.123 32.9808 31.2215 32.9145 31.3043 32.831C31.3878 32.7482 31.4541 32.6497 31.4993 32.5412C31.5445 32.4327 31.5678 32.3163 31.5678 32.1987C31.5678 32.0811 31.5445 31.9647 31.4993 31.8562C31.4541 31.7477 31.3878 31.6492 31.3043 31.5664L28.6325 28.8945Z" fill="#77B531"/>
<path d="M33.05 25.0737C32.6866 24.0238 32.0049 23.1131 31.0998 22.4686C30.1947 21.8241 29.1112 21.4778 28.0001 21.4778C26.889 21.4778 25.8055 21.8241 24.9005 22.4686C23.9954 23.1131 23.3137 24.0238 22.9503 25.0737C22.1501 25.1809 21.3941 25.5036 20.7632 26.0073C20.1322 26.511 19.6501 27.1767 19.3683 27.9333C19.0866 28.6898 19.0158 29.5088 19.1635 30.3024C19.3113 31.0961 19.672 31.8347 20.2072 32.4392C20.2718 32.5531 20.3607 32.6513 20.4677 32.7268C20.5746 32.8024 20.6969 32.8535 20.8258 32.8764C20.9547 32.8993 21.0871 32.8935 21.2135 32.8594C21.3399 32.8254 21.4572 32.7638 21.5572 32.6792C21.6571 32.5946 21.7371 32.489 21.7916 32.37C21.8461 32.2509 21.8736 32.1213 21.8722 31.9904C21.8709 31.8594 21.8407 31.7304 21.7838 31.6125C21.7269 31.4946 21.6447 31.3907 21.5431 31.3081C21.1985 30.9229 20.9731 30.446 20.8941 29.9352C20.8151 29.4244 20.8859 28.9017 21.098 28.4304C21.3101 27.9591 21.6544 27.5594 22.089 27.2798C22.5237 27.0001 23.0302 26.8526 23.547 26.855H23.6361C23.8444 26.8592 24.0477 26.7902 24.2104 26.66C24.3731 26.5298 24.485 26.3467 24.5267 26.1425C24.6902 25.3372 25.1271 24.6131 25.7634 24.0931C26.3997 23.573 27.1962 23.2889 28.0179 23.2889C28.8397 23.2889 29.6362 23.573 30.2725 24.0931C30.9087 24.6131 31.3457 25.3372 31.5092 26.1425C31.5508 26.3467 31.6627 26.5298 31.8255 26.66C31.9882 26.7902 32.1914 26.8592 32.3998 26.855H32.4532C32.9701 26.8526 33.4765 27.0001 33.9112 27.2798C34.3459 27.5594 34.6901 27.9591 34.9022 28.4304C35.1143 28.9017 35.1852 29.4244 35.1062 29.9352C35.0272 30.446 34.8017 30.9229 34.4571 31.3081C34.3787 31.3961 34.3185 31.4988 34.28 31.6102C34.2415 31.7216 34.2256 31.8396 34.233 31.9572C34.2405 32.0749 34.2712 32.1898 34.3235 32.2955C34.3757 32.4012 34.4484 32.4954 34.5373 32.5728C34.6997 32.716 34.9086 32.7952 35.1251 32.7955C35.2516 32.7953 35.3765 32.7682 35.4917 32.716C35.6069 32.6638 35.7096 32.5877 35.7931 32.4927C36.3431 31.8892 36.7166 31.1462 36.8727 30.3448C37.0289 29.5434 36.9617 28.7145 36.6786 27.9487C36.3954 27.1829 35.9072 26.5096 35.2672 26.0026C34.6273 25.4956 33.8602 25.1743 33.05 25.0737Z" fill="#77B531"/>
</g>
<path fill-rule="evenodd" clip-rule="evenodd" d="M10.7003 38.8643C10.7003 37.7597 11.5957 36.8643 12.7003 36.8643H18.1003C19.2049 36.8643 20.1003 37.7597 20.1003 38.8643C20.1003 39.9688 19.2049 40.8643 18.1003 40.8643H14.7003V44.2643C14.7003 45.3688 13.8049 46.2643 12.7003 46.2643C11.5957 46.2643 10.7003 45.3688 10.7003 44.2643V38.8643Z" fill="#00518B"/>
<path fill-rule="evenodd" clip-rule="evenodd" d="M37.9005 36.8643C39.0051 36.8643 39.9005 37.7597 39.9005 38.8643V42.2643H43.3005C44.4051 42.2643 45.3005 43.1597 45.3005 44.2643C45.3005 45.3688 44.4051 46.2643 43.3005 46.2643H37.9005C36.7959 46.2643 35.9005 45.3688 35.9005 44.2643V38.8643C35.9005 37.7597 36.7959 36.8643 37.9005 36.8643Z" fill="#00518B"/>
<path fill-rule="evenodd" clip-rule="evenodd" d="M43.3005 11.6643C44.4051 11.6643 45.3005 12.5597 45.3005 13.6643V19.0643C45.3005 20.1689 44.4051 21.0643 43.3005 21.0643H37.9005C36.7959 21.0643 35.9005 20.1689 35.9005 19.0643C35.9005 17.9597 36.7959 17.0643 37.9005 17.0643H41.3005V13.6643C41.3005 12.5597 42.1959 11.6643 43.3005 11.6643Z" fill="#00518B"/>
<path fill-rule="evenodd" clip-rule="evenodd" d="M10.7003 13.6643C10.7003 12.5597 11.5957 11.6643 12.7003 11.6643H18.1003C19.2049 11.6643 20.1003 12.5597 20.1003 13.6643V19.0643C20.1003 20.1689 19.2049 21.0643 18.1003 21.0643C16.9957 21.0643 16.1003 20.1689 16.1003 19.0643V15.6643H12.7003C11.5957 15.6643 10.7003 14.7689 10.7003 13.6643Z" fill="#00518B"/>
<path fill-rule="evenodd" clip-rule="evenodd" d="M19.7695 12.8275C20.3778 13.7495 20.1235 14.99 19.2015 15.5983C14.8587 18.4636 12.0001 23.3806 12.0001 28.9643C12.0001 29.782 12.0613 30.5842 12.179 31.3668C12.3433 32.4591 11.591 33.4777 10.4988 33.642C9.40648 33.8063 8.38782 33.0541 8.22352 31.9618C8.07628 30.9829 8.00012 29.9818 8.00012 28.9643C8.00012 21.9802 11.5816 15.8336 16.9987 12.2595C17.9207 11.6512 19.1612 11.9055 19.7695 12.8275Z" fill="#00518B"/>
<path fill-rule="evenodd" clip-rule="evenodd" d="M11.8639 37.195C12.7858 36.5867 14.0264 36.841 14.6347 37.7629C17.5 42.1058 22.4169 44.9644 28.0006 44.9644C28.8183 44.9644 29.6205 44.9032 30.4031 44.7855C31.4954 44.6212 32.5141 45.3734 32.6784 46.4657C32.8427 47.558 32.0904 48.5767 30.9981 48.741C30.0192 48.8882 29.0182 48.9644 28.0006 48.9644C21.0166 48.9644 14.87 45.3829 11.2959 39.9658C10.6876 39.0438 10.9419 37.8033 11.8639 37.195Z" fill="#00518B"/>
<path fill-rule="evenodd" clip-rule="evenodd" d="M45.5017 24.2867C46.5939 24.1224 47.6126 24.8747 47.7769 25.9669C47.9241 26.9458 48.0003 27.9469 48.0003 28.9644C48.0003 35.9485 44.4188 42.0951 39.0017 45.6692C38.0798 46.2775 36.8392 46.0232 36.2309 45.1013C35.6226 44.1793 35.8769 42.9387 36.7989 42.3304C41.1417 39.4651 44.0003 34.5481 44.0003 28.9644C44.0003 28.1467 43.9391 27.3445 43.8214 26.5619C43.6571 25.4696 44.4094 24.451 45.5017 24.2867Z" fill="#00518B"/>
<path fill-rule="evenodd" clip-rule="evenodd" d="M28.0002 12.9644C27.1825 12.9644 26.3803 13.0255 25.5977 13.1433C24.5054 13.3076 23.4867 12.5553 23.3224 11.463C23.1581 10.3707 23.9104 9.35205 25.0027 9.18775C25.9816 9.04051 26.9826 8.96436 28.0002 8.96436C34.9843 8.96436 41.1308 12.5458 44.705 17.9629C45.3133 18.8849 45.059 20.1254 44.137 20.7337C43.215 21.342 41.9745 21.0878 41.3662 20.1658C38.5008 15.8229 33.5839 12.9644 28.0002 12.9644Z" fill="#00518B"/>
<defs>
<clipPath id="clip0_1231_3974">
<rect width="21.375" height="21.375" fill="white" transform="translate(17.3126 18.8394)"/>
</clipPath>
</defs>
</svg>
