<svg width="24" height="24" viewBox="0 0 24 24" fill="none" xmlns="http://www.w3.org/2000/svg">
<path d="M20.5687 16.0406L18.6937 20.5406C18.6372 20.6782 18.5411 20.7959 18.4176 20.8787C18.2941 20.9615 18.1487 21.0057 18 21.0057C17.8513 21.0057 17.7059 20.9615 17.5824 20.8787C17.4589 20.7959 17.3628 20.6782 17.3063 20.5406L15.4313 16.0406C15.3931 15.9495 15.3732 15.8518 15.3728 15.753C15.3724 15.6543 15.3915 15.5564 15.4289 15.465C15.4664 15.3736 15.5214 15.2904 15.591 15.2203C15.6606 15.1502 15.7433 15.0944 15.8344 15.0563C15.9255 15.0181 16.0232 14.9982 16.122 14.9979C16.2208 14.9975 16.3186 15.0165 16.4101 15.054C16.5015 15.0914 16.5846 15.1465 16.6547 15.216C16.7248 15.2856 16.7806 15.3683 16.8187 15.4594L18 18.3L19.1813 15.4594C19.2194 15.3683 19.2752 15.2856 19.3453 15.216C19.4154 15.1465 19.4985 15.0914 19.5899 15.054C19.6814 15.0165 19.7792 14.9975 19.878 14.9979C19.9768 14.9982 20.0745 15.0181 20.1656 15.0563C20.2567 15.0944 20.3394 15.1502 20.409 15.2203C20.4786 15.2904 20.5336 15.3736 20.5711 15.465C20.6085 15.5564 20.6276 15.6543 20.6272 15.753C20.6268 15.8518 20.6069 15.9495 20.5687 16.0406ZM6.1875 16.5C6.48641 16.503 6.77363 16.6165 6.99375 16.8188C7.06641 16.8858 7.15176 16.9376 7.24477 16.9712C7.33778 17.0047 7.43657 17.0193 7.5353 17.0141C7.63404 17.0088 7.73072 16.9839 7.81965 16.9407C7.90859 16.8975 7.98797 16.8369 8.05313 16.7625C8.18735 16.6158 8.25781 16.4218 8.24902 16.2231C8.24023 16.0245 8.15291 15.8374 8.00625 15.7031C7.50639 15.2542 6.85934 15.0041 6.1875 15C4.64062 15 3.375 16.35 3.375 18C3.375 19.65 4.64062 21 6.1875 21C6.85934 20.9959 7.50639 20.7458 8.00625 20.2969C8.15291 20.1626 8.24023 19.9756 8.24902 19.7769C8.25781 19.5782 8.18735 19.3842 8.05313 19.2375C7.98797 19.1631 7.90859 19.1026 7.81965 19.0594C7.73072 19.0162 7.63404 18.9912 7.5353 18.986C7.43657 18.9807 7.33778 18.9953 7.24477 19.0288C7.15176 19.0624 7.06641 19.1142 6.99375 19.1813C6.77363 19.3835 6.48641 19.4971 6.1875 19.5C5.46563 19.5 4.875 18.825 4.875 18C4.875 17.175 5.46563 16.5 6.1875 16.5ZM18.75 9.00001H14.25C14.0511 9.00001 13.8603 8.92099 13.7197 8.78034C13.579 8.63969 13.5 8.44892 13.5 8.25001V3.75001H5.25V12C5.25 12.1989 5.17098 12.3897 5.03033 12.5303C4.88968 12.671 4.69891 12.75 4.5 12.75C4.30109 12.75 4.11032 12.671 3.96967 12.5303C3.82902 12.3897 3.75 12.1989 3.75 12V3.75001C3.75 3.35219 3.90804 2.97066 4.18934 2.68935C4.47064 2.40805 4.85218 2.25001 5.25 2.25001H14.25C14.4495 2.24889 14.6415 2.32635 14.7844 2.46564L20.025 7.71564C20.097 7.78466 20.154 7.86767 20.1927 7.95957C20.2314 8.05147 20.2509 8.15031 20.25 8.25001V12C20.25 12.1989 20.171 12.3897 20.0303 12.5303C19.8897 12.671 19.6989 12.75 19.5 12.75C19.3011 12.75 19.1103 12.671 18.9697 12.5303C18.829 12.3897 18.75 12.1989 18.75 12V9.00001ZM15 7.50001H17.6906L15 4.80939V7.50001ZM12.1594 17.2313C11.8687 17.1563 11.3531 17.0156 11.25 16.8938V16.875C11.25 16.5656 11.475 16.4063 11.9062 16.4063C12.2413 16.4131 12.567 16.5173 12.8438 16.7063H12.8344C12.9704 16.8143 13.1388 16.8737 13.3125 16.875C13.5114 16.875 13.7022 16.796 13.8428 16.6553C13.9835 16.5147 14.0625 16.3239 14.0625 16.125C14.0643 16.0152 14.0407 15.9064 13.9936 15.8072C13.9464 15.708 13.877 15.6211 13.7906 15.5531C13.2497 15.1381 12.588 14.911 11.9062 14.9063C10.6406 14.9063 9.75 15.7125 9.75 16.875C9.75 18.0375 10.9688 18.4688 11.775 18.6844C12.0938 18.7688 12.4313 18.8531 12.6375 18.975C12.8438 19.0969 12.75 19.0688 12.75 19.125C12.75 19.1813 12.75 19.5938 11.9062 19.5938C11.5712 19.5869 11.2455 19.4827 10.9688 19.2938H10.9781C10.8421 19.1857 10.6737 19.1263 10.5 19.125C10.3011 19.125 10.1103 19.204 9.96967 19.3447C9.82902 19.4853 9.75 19.6761 9.75 19.875C9.74817 19.9848 9.77176 20.0936 9.81892 20.1928C9.86608 20.292 9.93554 20.379 10.0219 20.4469C10.5628 20.8619 11.2245 21.089 11.9062 21.0938C13.3687 21.0938 14.25 20.3531 14.25 19.125C14.25 17.8969 12.9375 17.4375 12.1594 17.2313Z" fill="#888C94"/>
</svg>
