<svg width="20" height="20" viewBox="0 0 20 20" fill="none" xmlns="http://www.w3.org/2000/svg">
<path d="M8 8.5H9C9.28333 8.5 9.51667 8.40833 9.7 8.225C9.9 8.025 10 7.78333 10 7.5V6.5C10 6.21667 9.9 5.98333 9.7 5.8C9.51667 5.6 9.28333 5.5 9 5.5H7.5C7.36667 5.5 7.25 5.55 7.15 5.65C7.05 5.75 7 5.86667 7 6V10C7 10.1333 7.05 10.25 7.15 10.35C7.25 10.45 7.36667 10.5 7.5 10.5C7.63333 10.5 7.75 10.45 7.85 10.35C7.95 10.25 8 10.1333 8 10V8.5ZM8 7.5V6.5H9V7.5H8ZM13 10.5C13.2833 10.5 13.5167 10.4083 13.7 10.225C13.9 10.025 14 9.78333 14 9.5V6.5C14 6.21667 13.9 5.98333 13.7 5.8C13.5167 5.6 13.2833 5.5 13 5.5H11.5C11.3667 5.5 11.25 5.55 11.15 5.65C11.05 5.75 11 5.86667 11 6V10C11 10.1333 11.05 10.25 11.15 10.35C11.25 10.45 11.3667 10.5 11.5 10.5H13ZM12 9.5V6.5H13V9.5H12ZM16 8.5H16.5C16.6333 8.5 16.75 8.45 16.85 8.35C16.95 8.25 17 8.13333 17 8C17 7.86667 16.95 7.75 16.85 7.65C16.75 7.55 16.6333 7.5 16.5 7.5H16V6.5H16.5C16.6333 6.5 16.75 6.45 16.85 6.35C16.95 6.25 17 6.13333 17 6C17 5.86667 16.95 5.75 16.85 5.65C16.75 5.55 16.6333 5.5 16.5 5.5H15.5C15.3667 5.5 15.25 5.55 15.15 5.65C15.05 5.75 15 5.86667 15 6V10C15 10.1333 15.05 10.25 15.15 10.35C15.25 10.45 15.3667 10.5 15.5 10.5C15.6333 10.5 15.75 10.45 15.85 10.35C15.95 10.25 16 10.1333 16 10V8.5ZM6 16C5.45 16 4.975 15.8083 4.575 15.425C4.19167 15.025 4 14.55 4 14V2C4 1.45 4.19167 0.983332 4.575 0.599999C4.975 0.199999 5.45 -4.76837e-07 6 -4.76837e-07H18C18.55 -4.76837e-07 19.0167 0.199999 19.4 0.599999C19.8 0.983332 20 1.45 20 2V14C20 14.55 19.8 15.025 19.4 15.425C19.0167 15.8083 18.55 16 18 16H6ZM6 14H18V2H6V14ZM2 20C1.45 20 0.975 19.8083 0.575 19.425C0.191667 19.025 5.96046e-08 18.55 5.96046e-08 18V5C5.96046e-08 4.71667 0.0916668 4.48333 0.275 4.3C0.475 4.1 0.716667 4 1 4C1.28333 4 1.51667 4.1 1.7 4.3C1.9 4.48333 2 4.71667 2 5V18H15C15.2833 18 15.5167 18.1 15.7 18.3C15.9 18.4833 16 18.7167 16 19C16 19.2833 15.9 19.525 15.7 19.725C15.5167 19.9083 15.2833 20 15 20H2ZM6 2V14V2Z" fill="#888C94"/>
</svg>
